<?xml version="1.0" encoding="UTF-8"?>
<svg id="Capa_2" data-name="Capa 2" xmlns="http://www.w3.org/2000/svg" viewBox="0 0 200.87 200.87">
  <defs>
    <style>
      .cls-1 {
        fill: #fff;
      }
    </style>
  </defs>
  <g id="Capa_1-2" data-name="Capa 1">
    <path class="cls-1" d="M200.87,100.43c0,16.98-13.89,30.87-30.87,30.87h-8.69v30h-30v8.7c0,16.98-13.89,30.87-30.87,30.87s-30.87-13.89-30.87-30.87v-8.7h-30v-30h-8.7c-16.98,0-30.87-13.89-30.87-30.87,0-8.49,3.47-16.21,9.07-21.8,5.59-5.6,13.31-9.07,21.8-9.07h8.7v-30h30v-8.69c0-16.98,13.89-30.87,30.87-30.87,8.49,0,16.21,3.47,21.8,9.07,5.6,5.59,9.07,13.31,9.07,21.8v8.69h30v30h8.69c16.98,0,30.87,13.89,30.87,30.87Z"/>
  </g>
</svg>